<?xml version="1.0" encoding="UTF-8"?>
<svg xmlns="http://www.w3.org/2000/svg" xmlns:xlink="http://www.w3.org/1999/xlink" width="1806.72" height="1806.96" viewBox="0 0 1806.72 1806.96">
<path fill-rule="evenodd" fill="rgb(83.59375%, 1.197815%, 18.797302%)" fill-opacity="1" d="M 1181.859375 120.019531 L 1411.960938 208.269531 C 1289.230469 495.691406 1144.449219 730.488281 971.714844 898.574219 L 903.351562 868.378906 C 1065.960938 644.699219 1147.101562 408.898438 1181.859375 120.019531 "/>
<path fill-rule="evenodd" fill="rgb(83.59375%, 1.197815%, 18.797302%)" fill-opacity="1" d="M 624.84375 120.019531 L 394.746094 208.269531 C 517.476562 495.691406 662.253906 730.488281 834.992188 898.574219 L 903.351562 868.378906 C 740.75 644.699219 659.605469 408.898438 624.84375 120.019531 "/>
<path fill-rule="evenodd" fill="rgb(49.804688%, 9.202576%, 17.797852%)" fill-opacity="1" d="M 1051.519531 1124.332031 L 755.1875 1124.332031 C 761.933594 1026.8125 794.355469 934.410156 863.339844 849.300781 L 943.367188 849.300781 C 1002.039062 933.605469 1040.011719 1024.65625 1051.519531 1124.332031 "/>
<path fill-rule="evenodd" fill="rgb(71.484375%, 46.801758%, 20.506287%)" fill-opacity="1" d="M 903.351562 938.664062 C 1109.871094 938.664062 1277.539062 1106.328125 1277.539062 1312.847656 C 1277.539062 1519.363281 1109.871094 1687.03125 903.351562 1687.03125 C 696.835938 1687.03125 529.167969 1519.363281 529.167969 1312.847656 C 529.167969 1106.328125 696.835938 938.664062 903.351562 938.664062 "/>
<path fill-rule="evenodd" fill="rgb(95.701599%, 66.796875%, 0%)" fill-opacity="1" d="M 903.351562 984.75 C 1084.429688 984.75 1231.449219 1131.765625 1231.449219 1312.847656 C 1231.449219 1493.929688 1084.429688 1640.941406 903.351562 1640.941406 C 722.273438 1640.941406 575.257812 1493.929688 575.257812 1312.847656 C 575.257812 1131.765625 722.273438 984.75 903.351562 984.75 "/>
<path fill-rule="evenodd" fill="rgb(100%, 100%, 100%)" fill-opacity="1" d="M 903.351562 1025.160156 C 1062.128906 1025.160156 1191.039062 1154.070312 1191.039062 1312.847656 C 1191.039062 1471.625 1062.128906 1600.53125 903.351562 1600.53125 C 744.574219 1600.53125 615.667969 1471.625 615.667969 1312.847656 C 615.667969 1154.070312 744.574219 1025.160156 903.351562 1025.160156 "/>
</svg>
